<svg xmlns="http://www.w3.org/2000/svg" data-name="Layer 1" viewBox="0 0 70 87.5" x="0px" y="0px"><path d="M32.54,27.22H22.69a.76.76,0,0,1-.65-.37l-4.92-8.53a.77.77,0,0,1,0-.75L22,9a.74.74,0,0,1,.65-.38h9.85a.74.74,0,0,1,.65.38l4.92,8.53a.72.72,0,0,1,0,.75l-4.92,8.53A.76.76,0,0,1,32.54,27.22Zm-9.42-1.5h9l4.49-7.78-4.5-7.78h-9l-4.49,7.78Z"/><path d="M32.54,44.28H22.69A.74.74,0,0,1,22,43.9l-4.92-8.52a.77.77,0,0,1,0-.75L22,26.1a.74.74,0,0,1,.65-.38h9.85a.74.74,0,0,1,.65.38l4.92,8.53a.72.72,0,0,1,0,.75L33.19,43.9A.74.74,0,0,1,32.54,44.28Zm-9.42-1.5h9L36.6,35l-4.5-7.78h-9L18.64,35Z"/><path d="M17.77,52.81H7.92a.76.76,0,0,1-.65-.38L2.35,43.91a.77.77,0,0,1,0-.75l4.92-8.54a.77.77,0,0,1,.65-.37h9.85a.74.74,0,0,1,.65.37l4.92,8.54a.72.72,0,0,1,0,.75l-4.92,8.52A.73.73,0,0,1,17.77,52.81Zm-9.41-1.5h9l4.49-7.78-4.49-7.78h-9L3.87,43.53Z"/><path d="M32.54,61.34H22.69A.74.74,0,0,1,22,61l-4.92-8.52a.77.77,0,0,1,0-.75L22,43.15a.76.76,0,0,1,.65-.37h9.85a.76.76,0,0,1,.65.37l4.92,8.54a.72.72,0,0,1,0,.75L33.19,61A.74.74,0,0,1,32.54,61.34Zm-9.42-1.5h9l4.49-7.78-4.5-7.78h-9l-4.49,7.78Z"/><path d="M47.31,35.75H37.46a.76.76,0,0,1-.65-.37l-4.92-8.53a.72.72,0,0,1,0-.75l4.92-8.53a.74.74,0,0,1,.65-.38h9.85a.74.74,0,0,1,.65.38l4.92,8.53a.77.77,0,0,1,0,.75L48,35.38A.76.76,0,0,1,47.31,35.75Zm-9.42-1.5h9l4.48-7.78-4.49-7.78h-9l-4.5,7.78Z"/><path d="M47.31,52.81H37.46a.74.74,0,0,1-.65-.38l-4.92-8.52a.72.72,0,0,1,0-.75l4.92-8.54a.76.76,0,0,1,.65-.37h9.85a.76.76,0,0,1,.65.37l4.92,8.54a.77.77,0,0,1,0,.75L48,52.43A.74.74,0,0,1,47.31,52.81Zm-9.42-1.5h9l4.48-7.78-4.49-7.78h-9l-4.5,7.78Z"/><path d="M62.08,44.28H52.23a.73.73,0,0,1-.65-.38l-4.92-8.52a.72.72,0,0,1,0-.75l4.92-8.53a.73.73,0,0,1,.65-.38h9.85a.76.76,0,0,1,.65.38l4.92,8.53a.77.77,0,0,1,0,.75L62.73,43.9A.76.76,0,0,1,62.08,44.28Zm-9.42-1.5h9L66.13,35l-4.49-7.78h-9L48.17,35Z"/><text x="0" y="85" fill="#000000" font-size="5px" font-weight="bold" font-family="'Helvetica Neue', Helvetica, Arial-Unicode, Arial, Sans-serif">Created by Bernd Lakenbrink</text><text x="0" y="90" fill="#000000" font-size="5px" font-weight="bold" font-family="'Helvetica Neue', Helvetica, Arial-Unicode, Arial, Sans-serif">from the Noun Project</text></svg>